<svg xmlns="http://www.w3.org/2000/svg" viewBox="0 0 24 24" fill="currentColor"><path d="M23 11.5L19.95 10.37C19.69 9.22 19.04 8.56 19.04 8.56C19.04 8.56 16.97 6.3 16.12 5.78C15.28 5.25 13.61 5.66 13.61 5.66C13.61 5.66 14.97 4.26 15.53 3.59C16.1 2.91 14.9 2.3 14.24 2.82C13.59 3.34 11.5 5.16 11.5 5.16C11.5 5.16 9.79 6.04 8.54 7.27C7.29 8.5 7.17 10.64 7.17 10.64C7.17 10.64 4.84 11.41 3.47 12.19C2.1 12.97 1 14.61 1 14.61C1 14.61 1.87 14.07 3.16 14.07C4.45 14.07 5.97 14.61 5.97 14.61L6.94 14.36C6.94 14.36 5.97 15.23 6.25 15.53C6.53 15.83 7.87 16.59 7.87 16.59C7.87 16.59 7 17.13 7 17.67C7 18.21 7.87 18.47 8.73 18.47C9.6 18.47 11.5 17.94 11.5 17.94C11.5 17.94 14.8 17.67 16.66 15.8C18.53 13.94 18.25 11.56 18.25 11.56L19.15 11.29L20.5 13.72L23 11.5Z"/></svg>
