<svg xmlns="http://www.w3.org/2000/svg" viewBox="0 0 24 24" fill="currentColor"><path d="M12.22 19.85c-.18.18-.5.21-.71 0L5.25 13.6c-.21-.21-.18-.53 0-.71L8.8 9.34l1.41 1.41-2.83 2.83 5.3 5.3.01-.01c.18.18.21.5 0 .71l-.47.47-.01-.2zm9.18-5.29l-5.29 5.29c-.21.21-.53.18-.71 0l-.47-.47c-.18-.18-.21-.5 0-.71l3.54-3.54-5.3-5.3L8.34 14.7l-1.41-1.41 5.29-5.29c.21-.21.53-.18.71 0l8.49 5.85c.18.18.18.5-.02.71zM2.55 7.89l-.01.01 4.48-3.53c.21-.17.52-.13.68.08l5.39 7.16c.16.21.12.51-.09.68l-.41.31c-.21.16-.51.12-.68-.09L7.43 6.35l-3.17 2.5.01-.01c-.21.16-.51.12-.68-.09l-.38-.5c-.16-.21-.12-.51.09-.68l-.75.32z"/></svg>
