<svg xmlns="http://www.w3.org/2000/svg" viewBox="0 0 24 24" fill="currentColor"><path d="M9.19 6.35c-2.04 2.29-3.44 5.58-3.57 5.89L2 10.69l4.05-4.05c.47-.47 1.15-.68 1.81-.55l1.33.26zM11.17 17s3.74-1.55 5.89-3.7c5.4-5.4 4.5-9.62 4.21-10.57-.96-.31-5.17-1.19-10.57 4.21C8.55 9.09 7 12.83 7 12.83l4.17 4.17zm6.48-3.7c-2.15 2.15-5.43 3.55-5.72 3.68l1.55 1.55c.13-.13.56-.36.55-1.8l4.05 4.05-1.54 3.62c.31-.13 3.6-1.53 5.89-3.57l-.26-1.33c-.13-.66.08-1.34.55-1.81l4.05-4.05-2.66-3.62c-.31.13-3.6 1.53-5.89 3.57-.19.19-.28.44-.27.71-.01.27.08.52.27.71l-.52-.96zM3.55 18.54l1.41 1.41 3.54-3.54-1.41-1.41-3.54 3.54z"/></svg>
