<svg xmlns="http://www.w3.org/2000/svg" viewBox="0 0 24 24" fill="currentColor"><path d="M12 18c1.1 0 2 .9 2 2s-.9 2-2 2-2-.9-2-2 .9-2 2-2zm8.36-14.36l1.28 1.28L3.64 22.92l-1.28-1.28L12 12c-2.76 0-5 2.24-5 5H5c0-3.87 3.13-7 7-7l2.08-2.08C13.41 7.64 12.72 7.5 12 7.5c-3.87 0-7 3.13-7 7H3c0-4.97 4.03-9 9-9l2.36-2.36zM12 4c1.43 0 2.8.24 4.08.67L14.5 6.25c-.8-.16-1.64-.25-2.5-.25-5.52 0-10 4.48-10 10h2c0-4.42 3.58-8 8-8 .5 0 1 .05 1.48.14l1.6-1.6C13.77 6.1 12.9 6 12 6c-6.63 0-12 5.37-12 12h2c0-5.52 4.48-10 10-10z"/></svg>
